<svg width="24" height="18" viewBox="0 0 24 18" fill="none" xmlns="http://www.w3.org/2000/svg">
<path d="M8.03827 0.668945C7.27576 0.668945 4.97688 1.60153 4.56444 1.78791C4.15201 1.97429 3.69422 2.55609 3.17477 3.51632C2.65462 4.47655 2.23722 5.59905 1.55904 7.25022C0.881566 8.90138 0.723536 12.0847 0.746213 13.0562C0.76889 14.0278 0.880149 14.7868 1.87581 15.3615C2.87076 15.9355 3.75091 16.5364 4.67712 16.8978C5.60404 17.2593 6.23616 17.5193 6.6656 17.1579C7.09505 16.7965 7.3778 16.1637 7.3778 16.1637C7.3778 16.1637 7.78457 15.5989 7.01639 15.2601C6.24821 14.9207 5.86412 14.6833 5.89742 14.3332C5.93144 13.9831 5.98742 13.7911 6.17947 13.8365C6.37151 13.8818 6.82434 14.6946 8.56409 15.0674C10.3038 15.4401 11.9996 15.3842 11.9996 15.3842C11.9996 15.3842 13.6962 15.4408 15.4359 15.0674C17.1757 14.6946 17.6278 13.8818 17.8198 13.8365C18.0119 13.7911 18.0679 13.9831 18.1019 14.3325C18.1359 14.6833 17.7518 14.9207 16.9836 15.2601C16.2154 15.5989 16.6222 16.1637 16.6222 16.1637C16.6222 16.1637 16.905 16.7958 17.3344 17.1579C17.7631 17.5193 18.396 17.2593 19.3222 16.8978C20.2484 16.5364 21.1292 15.9362 22.1242 15.3615C23.1199 14.7868 23.2311 14.0278 23.2538 13.0562C23.2765 12.0854 23.1184 8.90138 22.4403 7.25022C21.7628 5.59905 21.3447 4.47655 20.8245 3.51632C20.3058 2.55609 19.8473 1.97429 19.4356 1.7872C19.0231 1.60153 16.7235 0.668945 15.961 0.668945C15.1985 0.668945 14.9732 1.20044 14.9732 1.20044L14.7074 1.78791C14.7074 1.78791 12.9216 1.44847 12.0117 1.44776C11.1018 1.44776 9.29259 1.78791 9.29259 1.78791L9.02684 1.19973C9.02684 1.19973 8.80149 0.668945 8.03827 0.668945ZM8.12118 7.71864H8.14953C9.26141 7.71864 10.1621 8.69162 10.1621 9.89137C10.1621 11.0918 9.26141 12.0641 8.14953 12.0641C7.03765 12.0641 6.13695 11.0918 6.13695 9.89137C6.13624 8.70296 7.02064 7.73494 8.12118 7.71864ZM15.8505 7.71864H15.8788C16.9794 7.73494 17.8631 8.70367 17.8631 9.89137C17.8631 11.0918 16.9624 12.0641 15.8505 12.0641C14.7379 12.0641 13.8379 11.0918 13.8379 9.89137C13.8379 8.69162 14.7379 7.71864 15.8505 7.71864Z" fill="#8F8E8E"/>
</svg>
