<svg width="20" height="21" viewBox="0 0 20 21" fill="none" xmlns="http://www.w3.org/2000/svg">
<path d="M9.99876 0.958496C4.47751 0.958496 1.34e-05 5.45349 1.34e-05 10.9985C-0.00224237 13.1029 0.656906 15.1548 1.8843 16.8643C3.1117 18.5737 4.84527 19.8542 6.84001 20.5247C7.34001 20.6172 7.52251 20.3072 7.52251 20.041C7.52251 19.8022 7.51376 19.171 7.50876 18.3335C4.72751 18.9397 4.14001 16.9872 4.14001 16.9872C3.68626 15.8272 3.03001 15.5185 3.03001 15.5185C2.12126 14.896 3.09751 14.9085 3.09751 14.9085C4.10126 14.9797 4.62876 15.9435 4.62876 15.9435C5.52126 17.4772 6.97001 17.0347 7.54001 16.7772C7.63001 16.1285 7.88876 15.686 8.17501 15.4347C5.95501 15.181 3.62001 14.3197 3.62001 10.4735C3.62001 9.37724 4.01001 8.48099 4.65001 7.77849C4.54626 7.52474 4.20376 6.50349 4.74751 5.12224C4.74751 5.12224 5.58751 4.85224 7.49751 6.15099C8.31344 5.92801 9.15541 5.81451 10.0013 5.81349C10.8472 5.81517 11.6891 5.92908 12.505 6.15224C14.4138 4.85349 15.2525 5.12349 15.2525 5.12349C15.7975 6.50599 15.455 7.52599 15.3525 7.77974C15.9938 8.48224 16.38 9.37849 16.38 10.4747C16.38 14.331 14.0425 15.1797 11.815 15.4285C12.1738 15.7385 12.4938 16.351 12.4938 17.2872C12.4938 18.6297 12.4813 19.7122 12.4813 20.041C12.4813 20.3097 12.6613 20.6222 13.1688 20.5235C15.1616 19.8513 16.893 18.5704 18.1187 16.8614C19.3444 15.1524 20.0024 13.1016 20 10.9985C20 5.45349 15.5225 0.958496 9.99876 0.958496Z" fill="#8F8E8E"/>
</svg>
